<svg width="131" height="131" viewBox="0 0 131 131" fill="none" xmlns="http://www.w3.org/2000/svg">
  <path d="M129.866 65.5034C129.866 100.991 100.996 129.859 65.5068 129.859C30.0172 129.859 1.14746 100.984 1.14746 65.5034C1.14746 30.0224 30.0172 1.1474 65.5068 1.1474C100.996 1.1474 129.866 30.0156 129.866 65.5034Z" fill="#FFB533"/>
  <path d="M65.5068 0C29.3857 0 0 29.3842 0 65.5034C0 101.623 29.3857 131.007 65.5068 131.007C101.628 131.007 131.007 101.616 131.007 65.5034C131.007 29.391 101.614 0 65.5068 0ZM65.5068 129.859C30.0172 129.859 1.14746 100.984 1.14746 65.5034C1.14746 30.0224 30.0172 1.1474 65.5068 1.1474C100.996 1.1474 129.866 30.0156 129.866 65.5034C129.866 100.991 100.996 129.859 65.5068 129.859Z" fill="#FF8A33"/>
  <path d="M75.4197 82.5989C74.958 85.1313 71.6243 86.2855 69.6824 86.7404C68.0869 87.1206 66.5592 87.3107 65.1266 87.3107C60.3331 87.3107 57.7326 85.1992 56.6123 83.9432C55.5056 82.694 55.2136 80.9627 55.8926 79.632C56.1846 79.0617 56.5105 78.6272 57.848 78.6204C58.5677 78.6204 59.8306 78.7697 61.7725 79.4826C63.2594 80.0257 64.7939 80.2973 66.3419 80.2973C67.7542 80.2973 69.1461 80.0665 70.4701 79.6116C71.6107 79.2178 72.6427 79.0141 73.4507 79.0141C73.9599 79.0141 74.2723 79.1024 74.4013 79.1771C74.8358 79.469 75.7185 80.9898 75.4265 82.5989H75.4197Z" fill="#C95601"/>
  <path d="M76.8999 75.3343C75.8814 74.669 74.6728 74.4246 73.4439 74.4246C71.8619 74.4246 70.2528 74.8387 68.9627 75.2868C68.1072 75.5788 67.2246 75.7213 66.3351 75.7213C65.3235 75.7213 64.3118 75.538 63.3477 75.185C61.1546 74.377 59.3485 74.0444 57.848 74.0444C54.5618 74.0444 52.7829 75.667 51.8188 77.5477C50.2368 80.6436 50.8886 84.3913 53.2039 86.9848C55.4037 89.4493 59.3214 91.8935 65.1333 91.8935C66.8376 91.8935 68.7047 91.683 70.7484 91.201C83.2414 88.2341 80.8379 77.9075 76.9066 75.3343H76.8999ZM65.1266 87.3107C60.333 87.3107 57.7326 85.1992 56.6123 83.9432C55.5056 82.694 55.2136 80.9627 55.8926 79.632C56.1846 79.0617 56.5105 78.6272 57.848 78.6204C58.5677 78.6204 59.8306 78.7697 61.7725 79.4826C63.2594 80.0258 64.7939 80.2973 66.3419 80.2973C67.7542 80.2973 69.146 80.0665 70.47 79.6116C71.6107 79.2178 72.6427 79.0142 73.4507 79.0142C73.9599 79.0142 74.2722 79.1024 74.4013 79.1771C74.8358 79.469 75.7184 80.9899 75.4265 82.5989C74.9648 85.1313 71.6311 86.2855 69.6892 86.7404C68.0936 87.1206 66.566 87.3107 65.1333 87.3107H65.1266Z" fill="#FF8A33"/>
  <path d="M56.368 120.307C34.5595 116.871 15.2225 100.068 10.2864 78.2809C1.0321 39.5342 35.9853 4.10072 74.7408 10.055C114.596 15.8802 135.434 61.6606 113.686 95.5665C101.838 114.502 78.1289 124.177 56.3612 120.307H56.368ZM56.4155 120.028C70.667 122.439 85.7401 118.548 97.1739 109.831C127.694 87.0323 126.587 39.9755 94.2408 19.4446C61.2226 -1.83314 17.7415 17.7473 12.0042 56.5822C7.29897 85.5862 26.8872 115.33 56.4087 120.022L56.4155 120.028Z" fill="#FF8A33"/>
  <path d="M17.9112 61.681C18.305 50.8045 27.2674 42.216 38.4499 43.0172C47.4938 43.6621 54.1613 49.9762 53.7675 60.8527C53.3737 71.7292 42.775 80.1208 33.7108 79.7949C24.6533 79.469 17.5174 72.5575 17.9112 61.681Z" fill="url(#paint0_radial_3_161)"/>
  <path d="M24.5174 60.907C24.3273 55.6792 28.2042 51.2933 33.1811 51.11C38.1579 50.9335 42.3403 55.0207 42.5305 60.2552C42.7206 65.4898 38.8437 69.8689 33.8668 70.0522C28.89 70.2355 24.7076 66.1416 24.5174 60.907Z" fill="url(#paint1_linear_3_161)"/>
  <path d="M112.596 61.4884C112.202 50.6119 103.24 42.0235 92.0574 42.8246C83.0135 43.4696 76.3461 49.7837 76.7399 60.6601C77.1337 71.5366 87.7324 79.9282 96.7966 79.6024C105.854 79.2765 112.99 72.3649 112.596 61.4884Z" fill="url(#paint2_radial_3_161)"/>
  <path d="M105.99 60.7144C106.18 55.4867 102.303 51.1007 97.3263 50.9174C92.3494 50.7409 88.167 54.8281 87.9769 60.0627C87.7868 65.2972 91.6637 69.6763 96.6405 69.8597C101.617 70.043 105.8 65.949 105.99 60.7144Z" fill="url(#paint3_linear_3_161)"/>
<defs>
<radialGradient id="paint0_radial_3_161" cx="0" cy="0" r="1" gradientUnits="userSpaceOnUse" gradientTransform="translate(31.572 59.7461) rotate(55.7496) scale(19.3022 21.2328)">
<stop stop-color="white"/>
<stop offset="0.51" stop-color="#FFFEFD"/>
<stop offset="0.69" stop-color="#FFFCF6"/>
<stop offset="0.82" stop-color="#FFF9EA"/>
<stop offset="0.92" stop-color="#FFF4D9"/>
<stop offset="1" stop-color="#FFF0C8"/>
</radialGradient>
<linearGradient id="paint1_linear_3_161" x1="37.316" y1="66.0058" x2="26.9896" y2="51.2385" gradientUnits="userSpaceOnUse">
<stop/>
<stop offset="0.17" stop-color="#030303"/>
<stop offset="0.33" stop-color="#0F0F0F"/>
<stop offset="0.49" stop-color="#222222"/>
<stop offset="0.65" stop-color="#3D3D3D"/>
<stop offset="0.8" stop-color="#606060"/>
<stop offset="0.95" stop-color="#898989"/>
<stop offset="1" stop-color="#999999"/>
</linearGradient>
<radialGradient id="paint2_radial_3_161" cx="0" cy="0" r="1" gradientUnits="userSpaceOnUse" gradientTransform="translate(98.9353 59.5535) rotate(124.25) scale(19.3022 21.2328)">
<stop stop-color="white"/>
<stop offset="0.51" stop-color="#FFFEFD"/>
<stop offset="0.69" stop-color="#FFFCF6"/>
<stop offset="0.82" stop-color="#FFF9EA"/>
<stop offset="0.92" stop-color="#FFF4D9"/>
<stop offset="1" stop-color="#FFF0C8"/>
</radialGradient>
<linearGradient id="paint3_linear_3_161" x1="93.1913" y1="65.8132" x2="103.518" y2="51.0459" gradientUnits="userSpaceOnUse">
<stop/>
<stop offset="0.17" stop-color="#030303"/>
<stop offset="0.33" stop-color="#0F0F0F"/>
<stop offset="0.49" stop-color="#222222"/>
<stop offset="0.65" stop-color="#3D3D3D"/>
<stop offset="0.8" stop-color="#606060"/>
<stop offset="0.95" stop-color="#898989"/>
<stop offset="1" stop-color="#999999"/>
</linearGradient>
</defs>
</svg>
