<?xml version="1.0" encoding="UTF-8"?>
<svg id="Layer_1" data-name="Layer 1" xmlns="http://www.w3.org/2000/svg" viewBox="0 0 434.24 434.24">
  <defs>
    <style>
      .cls-1 {
        fill: #fffbdd;
      }

      .cls-1, .cls-2, .cls-3, .cls-4 {
        stroke-width: 0px;
      }

      .cls-2 {
        fill: #ff8a33;
      }

      .cls-3 {
        fill: #000;
      }

      .cls-5 {
        fill: #ffb533;
        stroke: #ff8a33;
        stroke-miterlimit: 10;
        stroke-width: 3.22px;
      }

      .cls-4 {
        fill: #c95601;
      }
    </style>
  </defs>
  <g>
    <circle class="cls-5" cx="221.63" cy="217.12" r="182.48"/>
    <path class="cls-2" d="M195.96,371.16c-58.82-9.35-111.05-52.79-127.53-110.54-28.94-98.8,47.23-196.5,148.3-200.92,138.6-5.58,216.69,155.53,126.23,260.68-35.85,41.03-93.59,60.15-146.99,50.79h0ZM196.09,370.37c71.9,12.32,142.52-31.99,167.38-99.61,33.32-89.78-22.53-187.62-116.6-205.11-109.77-19.59-197.39,78.76-173.56,185.81,13.2,59.89,61.48,109.14,122.78,118.9h0Z"/>
    <g>
      <path class="cls-4" d="M220.57,284.06c-15.66,0-24.34-7.12-28.12-11.36-4.65-5.22-5.8-12.63-2.84-18.42,2.08-4.08,5.32-5.9,10.51-5.9,3.61,0,7.97.93,12.96,2.76,3.54,1.3,7.2,1.95,10.89,1.95,3.35,0,6.63-.55,9.74-1.63,3.8-1.32,7.34-2.01,10.24-2.01,2.4,0,4.33.47,5.73,1.39,3.03,1.98,6.58,8.38,5.37,15.25-1.36,7.77-8.4,13.38-20.38,16.22-4.91,1.16-9.65,1.75-14.1,1.75Z"/>
      <path class="cls-2" d="M200.12,255.63c1.89,0,5.25.4,10.47,2.32,4.34,1.59,8.84,2.39,13.38,2.39,4.16,0,8.24-.68,12.12-2.03,3-1.04,5.79-1.61,7.86-1.61,1.04,0,1.61.15,1.75.2.97.84,3,4.48,2.15,8.31-1.33,6-9.87,8.88-14.85,10.06-4.36,1.03-8.54,1.56-12.43,1.56-12.84,0-19.74-5.6-22.72-8.94-2.68-3.01-3.41-7.15-1.8-10.31.58-1.13,1-1.95,4.06-1.95h0M200.12,241.14c-9.24,0-14.25,4.55-16.96,9.85-4.44,8.7-2.62,19.23,3.88,26.53,6.18,6.93,17.21,13.79,33.53,13.79,4.8,0,10.06-.59,15.78-1.95,35.11-8.33,28.34-37.37,17.3-44.58-2.87-1.87-6.25-2.57-9.7-2.57-4.44,0-8.97,1.15-12.61,2.41-2.39.83-4.88,1.23-7.37,1.23-2.84,0-5.69-.52-8.4-1.51-6.15-2.25-11.24-3.2-15.45-3.2h0Z"/>
    </g>
  </g>
  <path class="cls-3" d="M382.28,179.06c.01,1.85-.2,4.34-1.35,5.46-8.48,8.21-9.86,18.81-11.52,29.75-1.38,9.1-4.04,18.16-7.32,26.79-4.1,10.8-13.29,16.94-23.81,20.27-16.97,5.39-34.31,6.66-51.76,1.91-11.85-3.21-21.03-9.75-25.89-21.28-4.92-11.7-9.43-23.57-14.21-35.33-1.31-3.25-2.49-6.66-4.4-9.56-2.47-3.8-11.23-5.88-20.4-6.21-9.16.33-17.91,2.42-20.39,6.21-1.91,2.9-3.09,6.31-4.4,9.56-4.77,11.76-9.29,23.62-14.21,35.33-4.86,11.53-14.05,18.07-25.89,21.28-17.45,4.74-34.79,3.48-51.76-1.91-10.52-3.34-19.71-9.47-23.81-20.27-3.28-8.63-5.94-17.68-7.32-26.79-1.65-10.94-3.03-21.54-11.52-29.75-1.15-1.12-1.37-3.61-1.35-5.46,0-3.67.58-7.33.7-11.01.1-2.4.91-3.42,3.49-3.68,9.71-.98,19.35-2.36,29.04-3.41,23.81-2.56,47.4-1.57,70.81,2.6,5.79,1.04,11.53,2.39,17.17,4.16,11.32,3.54,25.64,4.41,39.42,4.07,13.8.35,28.12-.53,39.44-4.07,5.64-1.77,11.37-3.12,17.17-4.16,23.41-4.17,47-5.16,70.81-2.6,9.69,1.05,19.34,2.43,29.04,3.41,2.59.26,3.39,1.28,3.49,3.68.13,3.68.7,7.35.7,11.01Z"/>
  <path class="cls-1" d="M95.06,275.31h0c0-12.56-10.18-22.74-22.74-22.74h0c12.56,0,22.74-10.18,22.74-22.74h0c0,12.56,10.18,22.74,22.74,22.74h0c-12.56,0-22.74,10.18-22.74,22.74Z"/>
  <path class="cls-1" d="M361.92,159.55h0c0-23.3-18.89-42.19-42.19-42.19h0c23.3,0,42.19-18.89,42.19-42.19h0c0,23.3,18.89,42.19,42.19,42.19h0c-23.3,0-42.19,18.89-42.19,42.19Z"/>
  <path class="cls-1" d="M72.32,345.41h0c0-23.3-18.89-42.19-42.19-42.19h0c23.3,0,42.19-18.89,42.19-42.19h0c0,23.3,18.89,42.19,42.19,42.19h0c-23.3,0-42.19,18.89-42.19,42.19Z"/>
</svg>