<?xml version="1.0" encoding="UTF-8"?>
<svg version="1.1" xmlns="http://www.w3.org/2000/svg" width="1673" height="1673">
<path d="M0 0 C1.08925781 0.53995605 2.17851563 1.07991211 3.30078125 1.63623047 C39.24886838 19.55273199 72.66875014 41.6619399 103 68 C103.73476562 68.63421875 104.46953125 69.2684375 105.2265625 69.921875 C107.16188594 71.60275352 109.08183978 73.29956589 111 75 C112.08982178 75.96256714 112.08982178 75.96256714 113.20166016 76.94458008 C119.39602712 82.46153661 125.33630996 88.18432522 131.1875 94.0625 C132.03763672 94.90876953 132.88777344 95.75503906 133.76367188 96.62695312 C138.71812333 101.58905625 143.45028063 106.66592152 148 112 C148.85722656 112.97582031 149.71445313 113.95164062 150.59765625 114.95703125 C163.01844952 129.34625451 174.04837976 144.81340761 184 161 C184.43876465 161.70995117 184.8775293 162.41990234 185.32958984 163.15136719 C215.43412965 212.28953248 232.01411414 268.29311919 232.203125 325.93359375 C232.20595238 326.62124376 232.20877975 327.30889378 232.21169281 328.01738167 C232.22655677 331.671178 232.23586138 335.3249363 232.24023438 338.97875977 C232.24457459 341.92094628 232.25830998 344.86283219 232.28125 347.80493164 C233.03651952 446.80852643 197.54345218 537.10659516 127 616 C126.50693359 616.54350098 126.01386719 617.08700195 125.50585938 617.64697266 C98.77644893 647.08326112 67.47569855 672.58955084 34 694 C32.86087158 694.73186523 32.86087158 694.73186523 31.69873047 695.47851562 C17.82796412 704.34829494 3.58669777 712.3722625 -11 720 C-12.00595215 720.53093262 -13.0119043 721.06186523 -14.04833984 721.60888672 C-86.25940939 759.54247684 -167.93103967 779.97319262 -484.04101562 758.74951172 C-511.51349641 750.10931784 -538.00005639 739.39341014 -564 727 C-564.92087402 726.56220215 -565.84174805 726.1244043 -566.79052734 725.67333984 C-599.48713392 710.01817909 -630.61418615 690.55477648 -659 668 C-659.63824707 667.4932373 -660.27649414 666.98647461 -660.93408203 666.46435547 C-668.62596704 660.33479824 -676.17375411 654.1178539 -683.375 647.4140625 C-685.41645973 645.53664864 -687.48383179 643.72812188 -689.58984375 641.92578125 C-694.62602789 637.53344425 -699.33301931 632.81718161 -704.0456543 628.0847168 C-705.5599258 626.56508332 -707.0794743 625.05087483 -708.59960938 623.53710938 C-713.94320218 618.19749753 -719.11617965 612.76782813 -724 607 C-724.88856472 605.97850664 -725.77784366 604.95763395 -726.66796875 603.9375 C-749.63479323 577.16067518 -768.16854011 547.45784905 -784 516 C-784.37608398 515.26249512 -784.75216797 514.52499023 -785.13964844 513.76513672 C-798.68754262 487.05733969 -807.46687993 457.78722164 -813.3125 428.5 C-813.54291992 427.3646582 -813.77333984 426.22931641 -814.01074219 425.05957031 C-818.70994559 400.12826061 -819.51490227 375.26568384 -819.44604492 349.98364258 C-819.43686147 346.45801028 -819.4437908 342.93304092 -819.46655273 339.4074707 C-819.96325998 261.98702938 -796.82948236 189.85849177 -748 129 C-747.57348145 128.46310547 -747.14696289 127.92621094 -746.70751953 127.37304688 C-742.11277164 121.5946621 -737.31670695 116.0303442 -732.3359375 110.58203125 C-731.06349746 109.17553817 -729.7972297 107.76291738 -728.56445312 106.3215332 C-723.70839082 100.65540196 -718.52421792 95.33805471 -713.24951172 90.06420898 C-711.76106763 88.57358385 -710.28082723 87.07512983 -708.80078125 85.57617188 C-703.26401532 80.0076712 -697.5833328 74.83413703 -691.42041016 69.94677734 C-689.07566741 68.06086059 -686.84381982 66.09410605 -684.625 64.0625 C-611.07012573 -1.8385161 -509.44415981 -39.44127613 -365 -63 C-364.26978638 -63.07412109 -363.53957275 -63.14824219 -362.78723145 -63.22460938 C-270.92003249 -72.47010136 -177.72243975 -63.29450737 0 0 Z " fill="#FFB433" transform="translate(1130,476)"/>
<path d="M0 0 C1.08925781 0.53995605 2.17851563 1.07991211 3.30078125 1.63623047 C39.24886838 19.55273199 72.66875014 41.6619399 103 68 C103.73476562 68.63421875 104.46953125 69.2684375 105.2265625 69.921875 C107.16188594 71.60275352 109.08183978 73.29956589 111 75 C112.08982178 75.96256714 112.08982178 75.96256714 113.20166016 76.94458008 C119.39602712 82.46153661 125.33630996 88.18432522 131.1875 94.0625 C132.03763672 94.90876953 132.88777344 95.75503906 133.76367188 96.62695312 C138.71812333 101.58905625 143.45028063 106.66592152 148 112 C148.85722656 112.97582031 149.71445313 113.95164062 150.59765625 114.95703125 C163.01844952 129.34625451 174.04837976 144.81340761 184 161 C184.43876465 161.70995117 184.8775293 162.41990234 185.32958984 163.15136719 C215.43412965 212.28953248 232.01411414 268.29311919 232.203125 325.93359375 C232.20595238 326.62124376 232.20877975 327.30889378 232.21169281 328.01738167 C232.22655677 331.671178 232.23586138 335.3249363 232.24023438 338.97875977 C232.24457459 341.92094628 232.25830998 344.86283219 232.28125 347.80493164 C233.03651952 446.80852643 197.54345218 537.10659516 127 616 C126.50693359 616.54350098 126.01386719 617.08700195 125.50585938 617.64697266 C98.77644893 647.08326112 67.47569855 672.58955084 34 694 C32.86087158 694.73186523 32.86087158 694.73186523 31.69873047 695.47851562 C17.82796412 704.34829494 3.58669777 712.3722625 -11 720 C-12.00595215 720.53093262 -13.0119043 721.06186523 -14.04833984 721.60888672 C-86.25940939 759.54247684 -167.93103967 779.97319262 -484.04101562 758.74951172 C-511.51349641 750.10931784 -538.00005639 739.39341014 -564 727 C-564.92087402 726.56220215 -565.84174805 726.1244043 -566.79052734 725.67333984 C-599.48713392 710.01817909 -630.61418615 690.55477648 -659 668 C-659.63824707 667.4932373 -660.27649414 666.98647461 -660.93408203 666.46435547 C-668.62596704 660.33479824 -676.17375411 654.1178539 -683.375 647.4140625 C-685.41645973 645.53664864 -687.48383179 643.72812188 -689.58984375 641.92578125 C-694.62602789 637.53344425 -699.33301931 632.81718161 -704.0456543 628.0847168 C-705.5599258 626.56508332 -707.0794743 625.05087483 -708.59960938 623.53710938 C-713.94320218 618.19749753 -719.11617965 612.76782813 -724 607 C-724.88856472 605.97850664 -725.77784366 604.95763395 -726.66796875 603.9375 C-749.63479323 577.16067518 -768.16854011 547.45784905 -784 516 C-784.37608398 515.26249512 -784.75216797 514.52499023 -785.13964844 513.76513672 C-798.68754262 487.05733969 -807.46687993 457.78722164 -813.3125 428.5 C-813.54291992 427.3646582 -813.77333984 426.22931641 -814.01074219 425.05957031 C-818.70994559 400.12826061 -819.51490227 375.26568384 -819.44604492 349.98364258 C-819.43686147 346.45801028 -819.4437908 342.93304092 -819.46655273 339.4074707 C-819.96325998 261.98702938 -796.82948236 189.85849177 -748 129 C-747.57348145 128.46310547 -747.14696289 127.92621094 -746.70751953 127.37304688 C-742.11277164 121.5946621 -737.31670695 116.0303442 -732.3359375 110.58203125 C-731.06349746 109.17553817 -729.7972297 107.76291738 -728.56445312 106.3215332 C-723.70839082 100.65540196 -718.52421792 95.33805471 -713.24951172 90.06420898 C-711.76106763 88.57358385 -710.28082723 87.07512983 -708.80078125 85.57617188 C-703.26401532 80.0076712 -697.5833328 74.83413703 -691.42041016 69.94677734 C-689.07566741 68.06086059 -686.84381982 66.09410605 -684.625 64.0625 C-611.07012573 -1.8385161 -509.44415981 -39.44127613 -365 -63 C-364.26978638 -63.07412109 -363.53957275 -63.14824219 -362.78723145 -63.22460938 C-270.92003249 -72.47010136 -177.72243975 -63.29450737 0 0 Z M-359 -19 C-359.75766663 -18.91278687 -360.51533325 -18.82557373 -361.29595947 -18.73571777 C-432.55030519 -10.48277652 -501.16154399 8.03342648 -565.11230469 41.02734375 C-566.38935894 41.68536032 -567.66873452 42.338888 -568.95019531 42.98828125 C-598.48987058 57.96777395 -625.58841398 76.83537794 -651 98 C-651.97453125 98.78761719 -652.9490625 99.57523438 -653.953125 100.38671875 C-662.18938432 107.14431651 -669.76822649 114.55312497 -677.3125 122.0625 C-677.82428802 122.56911163 -678.33607605 123.07572327 -678.8633728 123.59768677 C-685.71534073 130.39497852 -691.98495628 137.43705287 -698 145 C-698.86337571 146.02756057 -699.73178251 147.05096064 -700.609375 148.06640625 C-711.26832171 160.49536053 -720.80090674 173.82815105 -728.89648438 188.06201172 C-730.05841294 190.10258449 -731.24035156 192.13087571 -732.421875 194.16015625 C-752.49649644 229.03423037 -764.73784748 266.98659548 -769 307 C-769.0920874 307.75571289 -769.1841748 308.51142578 -769.27905273 309.29003906 C-777.44541736 380.40271291 -750.28273324 452.5677276 -707 508 C-703.13286387 512.7840623 -699.09929879 517.41469539 -695 522 C-694.05737305 523.07181519 -694.05737305 523.07181519 -693.09570312 524.1652832 C-687.22110453 530.79024283 -681.07612292 537.11008563 -674.81689453 543.3684082 C-673.12892145 545.05857346 -671.44914276 546.75660834 -669.76953125 548.45507812 C-663.16736485 555.09144544 -656.35526989 561.19162522 -649 567 C-647.70581222 568.07222495 -646.41504452 569.14860151 -645.12890625 570.23046875 C-606.25828183 602.59489743 -560.33728922 626.61536695 -513 644 C-511.34291016 644.60884033 -511.34291016 644.60884033 -509.65234375 645.22998047 C-483.93208421 654.58659791 -457.72841936 661.28966681 -431 667 C-430.06833008 667.20222168 -429.13666016 667.40444336 -428.17675781 667.61279297 C-402.61138714 673.10244213 -376.08381836 676.37370611 -350 678 C-348.03957764 678.12918823 -348.03957764 678.12918823 -346.03955078 678.26098633 C-332.40431334 679.10473433 -318.78299295 679.19946839 -305.125 679.1875 C-303.36953857 679.18709213 -303.36953857 679.18709213 -301.57861328 679.18667603 C-283.95358467 679.16786773 -266.54796946 678.73368661 -249 677 C-246.59116115 676.77978034 -244.18230646 676.55973386 -241.7734375 676.33984375 C-226.54776005 674.89921016 -211.4186426 672.96334187 -196.31982422 670.53271484 C-194.14564631 670.18383588 -191.97020576 669.84271606 -189.79345703 669.51025391 C-136.65549335 661.35079577 -83.78094112 644.36202096 -35 622 C-34.09056641 621.58782227 -33.18113281 621.17564453 -32.24414062 620.75097656 C-18.03056515 614.28978713 -4.47932664 606.86728361 9 599 C9.87043945 598.49710449 10.74087891 597.99420898 11.63769531 597.47607422 C34.24270753 584.39554882 55.32675168 569.16789992 75 552 C75.88300781 551.23042969 76.76601562 550.46085937 77.67578125 549.66796875 C84.37352686 543.66810691 90.77007347 537.35713287 97.15093994 531.02429199 C98.15816232 530.02511139 99.16686031 529.02741559 100.17718506 528.03137207 C106.92081695 521.37298864 113.10789204 514.43366059 119 507 C120.0242412 505.75655247 121.05118937 504.5153247 122.08203125 503.27734375 C133.93058645 488.86167219 143.83867889 473.23190069 153 457 C153.35545898 456.37561035 153.71091797 455.7512207 154.07714844 455.10791016 C185.68718536 399.2338308 196.3217183 329.57554791 180.53710938 267.14941406 C179.99182246 264.96727496 179.48654496 262.77836153 178.984375 260.5859375 C167.35517067 211.51649665 139.08789114 166.66287214 104.921875 130.14453125 C102.31098405 127.35067369 99.77646481 124.49558674 97.25 121.625 C94.003497 117.99758961 90.60603987 114.77147074 86.88671875 111.63671875 C85.0505395 110.04384275 83.37330967 108.37487844 81.6875 106.625 C77.13021058 102.00626398 72.0561275 98.05378353 67 94 C65.90896344 93.09649053 64.81915893 92.19149163 63.73046875 91.28515625 C47.01427737 77.48083273 28.75662874 65.81600918 10 55 C9.28521484 54.58476074 8.57042969 54.16952148 7.83398438 53.74169922 C-33.96661893 29.56539679 -79.24300317 11.09084962 -126 -1 C-126.70092773 -1.18320801 -127.40185547 -1.36641602 -128.12402344 -1.55517578 C-132.73743313 -2.75440324 -137.36497127 -3.88684477 -142 -5 C-143.34251538 -5.33045522 -144.68496214 -5.6611893 -146.02734375 -5.9921875 C-192.89578671 -17.42784356 -241.19802673 -22.44879039 -289.375 -22.3125 C-290.7377013 -22.3105732 -292.10040272 -22.30873301 -293.46310425 -22.30697632 C-315.42245123 -22.26591714 -337.17845051 -21.55038942 -359 -19 Z " fill="#FFB433" transform="translate(1130,476)"/>
<path d="M0 0 C0.33 0 0.66 0 1 0 C2.6851085 102.80890145 -32.10664667 196.11538438 -104 275 C-104.49306641 275.54350098 -104.98613281 276.08700195 -105.49414062 276.64697266 C-132.22355107 306.08326112 -163.52430145 331.58955084 -197 353 C-198.13912842 353.73186523 -198.13912842 353.73186523 -199.30126953 354.47851562 C-213.17203588 363.34829494 -227.41330223 371.3722625 -242 379 C-243.00595215 379.53093262 -244.0119043 380.06186523 -245.04833984 380.60888672 C-317.25940939 418.54247684 -398.93103967 438.97319262 -715.04101562 417.74951172 C-742.51349641 409.10931784 -769.00005639 398.39341014 -795 386 C-795.92087402 385.56220215 -796.84174805 385.1244043 -797.79052734 384.67333984 C-830.48713392 369.01817909 -861.61418615 349.55477648 -890 327 C-890.63824707 326.4932373 -891.27649414 325.98647461 -891.93408203 325.46435547 C-899.62596704 319.33479824 -907.17375411 313.1178539 -914.375 306.4140625 C-916.41645973 304.53664864 -918.48383179 302.72812188 -920.58984375 300.92578125 C-925.62602789 296.53344425 -930.33301931 291.81718161 -935.0456543 287.0847168 C-936.5599258 285.56508332 -938.0794743 284.05087483 -939.59960938 282.53710938 C-944.94320218 277.19749753 -950.11617965 271.76782813 -955 266 C-955.88856472 264.97850664 -956.77784366 263.95763395 -957.66796875 262.9375 C-980.63479323 236.16067518 -999.16854011 206.45784905 -1015 175 C-1015.37608398 174.26249512 -1015.75216797 173.52499023 -1016.13964844 172.76513672 C-1042.68732085 120.43007735 -1050.8795749 62.93466646 -1050 5 C-1049.67 5 -1049.34 5 -1049 5 C-1048.93530518 5.74757568 -1048.87061035 6.49515137 -1048.80395508 7.26538086 C-1045.51436694 44.26971778 -1037.1278985 78.99569718 -1022 113 C-1021.51781006 114.10456543 -1021.51781006 114.10456543 -1021.02587891 115.23144531 C-1006.85576725 147.5302099 -986.08648403 177.43796478 -962.3359375 203.41796875 C-961.05411249 204.83483553 -959.77886287 206.25815926 -958.53588867 207.70922852 C-953.48061298 213.60171209 -948.062314 219.08613937 -942.5625 224.5625 C-941.65951172 225.46935547 -940.75652344 226.37621094 -939.82617188 227.31054688 C-934.71263635 232.41667684 -929.503282 237.31805789 -924 242 C-923.03578125 242.845625 -922.0715625 243.69125 -921.078125 244.5625 C-911.42908211 252.87880216 -901.28397708 260.48955688 -891 268 C-890.19143555 268.59216309 -889.38287109 269.18432617 -888.54980469 269.79443359 C-874.88502792 279.74432494 -860.61761853 288.52482503 -846 297 C-845.20416504 297.4635791 -844.40833008 297.9271582 -843.58837891 298.40478516 C-784.78121057 332.47446225 -719.58523403 354.31850812 -653 367 C-652.04303223 367.1851416 -651.08606445 367.3702832 -650.10009766 367.56103516 C-574.55616949 381.94201131 -493.76534693 383.06743027 -418 370 C-416.0353036 369.67748648 -414.07045951 369.3558714 -412.10546875 369.03515625 C-407.33568951 368.24386016 -402.57770849 367.39941374 -397.82324219 366.52099609 C-395.94727172 366.17480784 -394.07030958 365.83394921 -392.19238281 365.49853516 C-313.00541407 351.27536872 -235.12976132 319.80615517 -169 274 C-168.37593262 273.56880859 -167.75186523 273.13761719 -167.10888672 272.69335938 C-158.13749676 266.46528701 -149.51854175 259.83078476 -141 253 C-139.56333984 251.85724609 -139.56333984 251.85724609 -138.09765625 250.69140625 C-132.18840314 245.93517814 -126.56711258 240.94083494 -121.01953125 235.7734375 C-118.78022735 233.69302997 -116.48716116 231.686793 -114.171875 229.69140625 C-109.74111578 225.82952815 -105.58098731 221.72848589 -101.4375 217.5625 C-100.72142578 216.85029297 -100.00535156 216.13808594 -99.26757812 215.40429688 C-94.6386571 210.76695197 -90.26135496 205.97544491 -86 201 C-85.154375 200.03578125 -84.30875 199.0715625 -83.4375 198.078125 C-61.94818945 173.14501469 -44.1966761 145.66247968 -30 116 C-29.46656982 114.89543457 -29.46656982 114.89543457 -28.92236328 113.76855469 C-19.17470557 93.42973335 -11.67826177 72.07404336 -7 50 C-6.82130371 49.16146484 -6.64260742 48.32292969 -6.45849609 47.45898438 C-3.19653144 31.77090864 -1.52060527 15.93832575 0 0 Z " fill="#FF8A33" transform="translate(1361,817)"/>
<path d="M0 0 C15.49400677 13.29596965 26.30438159 33.84920793 28.05859375 54.3515625 C29.40212158 81.18013377 22.05378989 106.34615577 4.18359375 126.84765625 C-9.56178867 142.02947201 -24.69036242 153.43327979 -42.81640625 162.84765625 C-43.82445312 163.37875 -44.8325 163.90984375 -45.87109375 164.45703125 C-61.41072132 172.12379711 -78.67056807 177.48943859 -95.81640625 179.84765625 C-97.05261719 180.05003906 -98.28882813 180.25242187 -99.5625 180.4609375 C-141.90101234 186.79660462 -190.32796075 180.7474009 -228.81640625 161.84765625 C-229.48510742 161.52829102 -230.15380859 161.20892578 -230.84277344 160.87988281 C-254.83939209 149.32160928 -274.36113902 130.55526298 -283.68115234 105.31860352 C-292.10031289 81.14904901 -288.83770377 55.09449943 -278.1484375 32.2890625 C-269.22150151 14.9458848 -257.13396385 3.71661174 -238.94140625 -3.25390625 C-217.62349253 -9.45232138 -192.08273096 -5.33659954 -171.4296875 1.6640625 C-148.46433093 9.18676849 -126.81396504 6.11982341 -104.71875 -2.3125 C-71.88281189 -14.78060088 -30.27006415 -23.13287842 0 0 Z " fill="#FE8A33" transform="translate(970.81640625,831.15234375)"/>
<path d="M0 0 C0.75748535 0.32371582 1.5149707 0.64743164 2.29541016 0.98095703 C23.4134533 10.10042813 41.42897436 23.13630548 58 39 C58.5583252 39.52577637 59.11665039 40.05155273 59.69189453 40.59326172 C80.94335772 60.67034877 98.12404058 86.32970491 105 115 C105.37437819 116.42464272 105.74940996 117.84911379 106.125 119.2734375 C108.76171201 129.66014308 109.67155807 139.31432606 109 150 C108.96132812 150.70511719 108.92265625 151.41023437 108.8828125 152.13671875 C107.5532527 173.60519904 98.54297115 192.15109928 83 207 C60.0283169 226.52100109 32.02528686 229.72944374 3 228 C-41.34577047 223.70015154 -85.5389314 196.57240501 -113.7734375 162.7265625 C-139.12158048 131.52441657 -154.47235468 96.91731446 -151 56 C-148.36683974 36.10389471 -138.11071314 17.67651396 -122.3125 5.25 C-85.65751268 -20.55810332 -39.66574004 -17.23084279 0 0 Z " fill="#FEF7E4" transform="translate(1113,623)"/>
<path d="M0 0 C0.85722656 0.48210938 1.71445312 0.96421875 2.59765625 1.4609375 C19.80549088 11.96166198 30.69674315 30.0077008 35.55688477 49.19897461 C37.01130972 55.84528548 37.30169436 62.21080772 37.25 69 C37.25773437 70.01578125 37.26546875 71.0315625 37.2734375 72.078125 C37.25663304 78.63186512 36.50755072 84.63142349 35 91 C34.73960937 92.24523437 34.47921875 93.49046875 34.2109375 94.7734375 C25.54740331 132.09950536 2.79185125 164.35997258 -27 188 C-28.01320313 188.81855469 -29.02640625 189.63710938 -30.0703125 190.48046875 C-47.37017869 204.28871724 -66.92280056 214.06334597 -87.79638672 221.23681641 C-89.20589859 221.72497662 -90.60947109 222.23087151 -92.00439453 222.75927734 C-104.53217878 227.3307468 -117.42278698 228.52110187 -130.65405273 228.44604492 C-132.93369558 228.43751424 -135.21083482 228.46648709 -137.49023438 228.49804688 C-161.95500134 228.6134901 -183.44851888 220.22916677 -201 203 C-202.04994141 201.98679687 -202.04994141 201.98679687 -203.12109375 200.953125 C-210.81186356 192.97751187 -217.10372721 181.71620934 -220 171 C-220.27585937 169.98550781 -220.55171875 168.97101563 -220.8359375 167.92578125 C-228.05393786 137.29894488 -219.69781129 104.82597319 -203.8046875 78.24609375 C-197.14462587 67.49907678 -189.56377959 57.46220173 -180.98828125 48.17578125 C-179.39293179 46.42998626 -177.90064268 44.66711898 -176.4375 42.8125 C-173.25575756 39.14125873 -169.70293694 36.13279268 -166 33 C-165.04996094 32.16210938 -164.09992188 31.32421875 -163.12109375 30.4609375 C-120.4451454 -6.94315814 -52.53009952 -30.48567625 0 0 Z " fill="#FEF7E4" transform="translate(673,619)"/>
<path d="M0 0 C2.12528924 -0.00194183 4.25055285 -0.00704345 6.37583542 -0.01256943 C32.77682321 -0.06313583 59.00935911 1.15492976 85.18250656 4.80514908 C87.9543766 5.190736 90.72824675 5.55821641 93.50281906 5.92380142 C105.71076897 7.56428419 117.74497431 9.7519934 129.79188156 12.31052017 C131.32425461 12.62811295 131.32425461 12.62811295 132.88758469 12.95212173 C172.40325747 21.23964999 211.10254302 33.43000377 247.79188156 50.31052017 C248.38829453 50.58486893 248.98470749 50.85921768 249.59919357 51.14188004 C288.22884475 68.95607107 324.16364735 90.94678533 356.79188156 118.31052017 C357.43206223 118.84628677 358.07224289 119.38205338 358.73182297 119.93405533 C370.72513953 130.00308246 370.72513953 130.00308246 376.103405 135.62448502 C377.84476181 137.36332396 379.66299628 138.94769246 381.53797531 140.54098892 C385.60685072 144.08102216 389.31966817 147.85343349 392.97938156 151.81052017 C393.62302658 152.50339127 394.2666716 153.19626236 394.92982101 153.91012955 C441.04789024 203.81895787 472.81397881 262.97093763 483.79188156 330.31052017 C484.08880905 332.12604385 484.08880905 332.12604385 484.39173508 333.97824478 C485.97590878 344.93209737 486.13092944 355.81587245 486.10755539 366.87179947 C486.10440383 369.97608265 486.12791667 373.07940132 486.15320969 376.18356705 C486.1922423 388.64009645 485.28388617 400.61298737 483.19816208 412.89372635 C482.7564079 415.52153824 482.34883591 418.15344099 481.94495773 420.78732681 C477.34752165 450.41582045 466.67765872 479.04072265 452.74207687 505.4999733 C451.7924723 507.30939454 450.86509746 509.12893135 449.94031906 510.95114517 C438.71831047 532.82064685 424.45455238 553.06177891 408.28724289 571.54391861 C407.14720275 572.89074807 406.03783717 574.2636052 404.94300461 575.64743423 C399.08534978 583.02209731 392.7054346 589.67353326 386.01673508 596.2914772 C384.22304665 598.06679019 382.4376096 599.85009473 380.65320969 601.63473892 C374.8680798 607.40215748 369.04445768 613.04567117 362.79188156 618.31052017 C361.77015956 619.19882198 360.74928235 620.0880967 359.72938156 620.97848892 C351.36449719 628.15315704 342.70526011 634.83238276 333.79188156 641.31052017 C333.04583664 641.85579361 332.29979172 642.40106705 331.53113937 642.96286392 C317.7977477 652.95288256 303.51018114 661.84761265 288.79188156 670.31052017 C287.81767258 670.87126236 286.84346359 671.43200455 285.83973312 672.00973892 C249.29960541 692.8473871 210.13300778 707.76291996 169.79188156 719.31052017 C167.8087761 719.89113818 165.82569986 720.47185604 163.84266281 721.05270767 C141.78285339 727.40634863 119.37247117 731.40564962 96.66688156 734.56052017 C95.76893875 734.6853981 94.87099594 734.81027603 93.94584274 734.93893814 C64.95945716 738.93591631 36.49938483 740.54729115 7.22938156 740.56052017 C6.55761761 740.56096203 5.88585365 740.56140388 5.19373322 740.56185913 C-16.409468 740.56928566 -37.7592345 740.08025967 -59.20811844 737.31052017 C-59.90648819 737.22095047 -60.60485794 737.13138077 -61.32439041 737.03909683 C-71.98547121 735.66274978 -82.60154613 734.05497839 -93.20811844 732.31052017 C-94.94569412 732.02869888 -94.94569412 732.02869888 -96.71837234 731.74118423 C-124.88356304 727.09597713 -153.13822119 720.40378901 -180.20811844 711.31052017 C-181.12053299 711.00531448 -181.12053299 711.00531448 -182.05138016 710.69394302 C-211.35388159 700.87618824 -239.53348755 689.10817378 -267.20811844 675.31052017 C-268.11610184 674.85854263 -269.02408524 674.40656509 -269.95958328 673.94089127 C-306.60934291 655.55896641 -341.46457945 631.88094224 -371.46983719 603.86520767 C-374.07833769 601.4315995 -376.72802708 599.0539807 -379.39561844 596.68552017 C-386.14508219 590.61749266 -392.51804981 584.27099994 -398.41905594 577.37302017 C-399.6491082 575.95496866 -400.90617221 574.56004339 -402.18468094 573.18552017 C-409.46110027 565.353447 -415.83083063 556.87528411 -422.20811844 548.31052017 C-422.65300613 547.71755142 -423.09789383 547.12458267 -423.55626297 546.51364517 C-447.76757846 514.1183563 -465.57284104 477.28991598 -476.20811844 438.31052017 C-476.44224442 437.48552017 -476.67637039 436.66052017 -476.91759109 435.81052017 C-496.64894186 365.60460214 -482.04785754 289.36546286 -447.41173172 226.35519791 C-433.60156472 201.78575619 -417.0943474 178.88982788 -397.91124344 158.23239517 C-395.39598527 155.5135901 -392.92186544 152.76345048 -390.45811844 149.99802017 C-385.0653762 144.0018272 -379.4654299 138.43727 -373.35264969 133.17770767 C-371.05704415 131.17898372 -368.82332244 129.12106788 -366.58311844 127.06052017 C-340.89801207 103.92431749 -310.74908439 84.84172535 -280.40880203 68.49899673 C-278.22696951 67.32070067 -276.05544919 66.12482511 -273.88389969 64.92770767 C-242.9600974 48.0642094 -208.85995364 33.68124965 -174.68492508 24.96457291 C-171.59455397 24.14849561 -168.52839597 23.25775019 -165.45811844 22.36911392 C-134.5884557 13.51436768 -102.47317869 6.67759537 -70.48057938 3.63425064 C-66.98054505 3.28800732 -63.49056596 2.87834501 -59.99718094 2.47067642 C-40.03318765 0.2746232 -20.06347635 0.01400932 0 0 Z M-62.20811844 25.31052017 C-62.96578506 25.39773331 -63.72345169 25.48494644 -64.50407791 25.5748024 C-135.75842363 33.82774365 -204.36966243 52.34394666 -268.32042313 85.33786392 C-269.59747738 85.99588049 -270.87685295 86.64940817 -272.15831375 87.29880142 C-301.69798902 102.27829412 -328.79653242 121.14589811 -354.20811844 142.31052017 C-355.18264969 143.09813736 -356.15718094 143.88575455 -357.16124344 144.69723892 C-365.39750276 151.45483668 -372.97634493 158.86364514 -380.52061844 166.37302017 C-381.03240646 166.87963181 -381.54419449 167.38624344 -382.07149124 167.90820694 C-388.92345917 174.7054987 -395.19307471 181.74757305 -401.20811844 189.31052017 C-402.07149415 190.33808075 -402.93990095 191.36148082 -403.81749344 192.37692642 C-414.47644015 204.8058807 -424.00902518 218.13867122 -432.10460281 232.37253189 C-433.26653138 234.41310467 -434.44847 236.44139588 -435.62999344 238.47067642 C-455.70461488 273.34475054 -467.94596592 311.29711566 -472.20811844 351.31052017 C-472.30020584 352.06623306 -472.39229324 352.82194595 -472.48717117 353.60055923 C-480.6535358 424.71323308 -453.49085168 496.87824777 -410.20811844 552.31052017 C-406.34098231 557.09458247 -402.30741722 561.72521556 -398.20811844 566.31052017 C-397.26549149 567.38233536 -397.26549149 567.38233536 -396.30382156 568.47580338 C-390.42922297 575.100763 -384.28424136 581.42060581 -378.02501297 587.67892838 C-376.33703989 589.36909363 -374.6572612 591.06712851 -372.97764969 592.7655983 C-366.37548329 599.40196561 -359.56338833 605.5021454 -352.20811844 611.31052017 C-350.91393066 612.38274512 -349.62316295 613.45912169 -348.33702469 614.54098892 C-309.46640027 646.9054176 -263.54540765 670.92588712 -216.20811844 688.31052017 C-214.55102859 688.9193605 -214.55102859 688.9193605 -212.86046219 689.54050064 C-187.14020265 698.89711808 -160.9365378 705.60018698 -134.20811844 711.31052017 C-133.27644852 711.51274185 -132.34477859 711.71496353 -131.38487625 711.92331314 C-105.81950558 717.4129623 -79.2919368 720.68422629 -53.20811844 722.31052017 C-51.24769608 722.4397084 -51.24769608 722.4397084 -49.24766922 722.5715065 C-35.61243178 723.4152545 -21.99111139 723.50998857 -8.33311844 723.49802017 C-6.57765701 723.4976123 -6.57765701 723.4976123 -4.78673172 723.4971962 C12.83829689 723.4783879 30.2439121 723.04420678 47.79188156 721.31052017 C50.20072041 721.09030051 52.6095751 720.87025403 55.01844406 720.65036392 C70.24412151 719.20973033 85.37323896 717.27386204 100.47205734 714.84323502 C102.64623525 714.49435605 104.8216758 714.15323623 106.99842453 713.82077408 C160.13638821 705.66131594 213.01094044 688.67254113 261.79188156 666.31052017 C262.70131516 665.89834244 263.61074875 665.4861647 264.54774094 665.06149673 C278.76131641 658.6003073 292.31255493 651.17780378 305.79188156 643.31052017 C306.66232101 642.80762466 307.53276047 642.30472916 308.42957687 641.78659439 C331.03458909 628.706069 352.11863324 613.47842009 371.79188156 596.31052017 C372.67488937 595.54094986 373.55789719 594.77137955 374.46766281 593.97848892 C381.16540842 587.97862708 387.56195503 581.66765305 393.9428215 575.33481216 C394.95004388 574.33563156 395.95874187 573.33793576 396.96906662 572.34189224 C403.71269851 565.68350881 409.8997736 558.74418076 415.79188156 551.31052017 C416.81612276 550.06707264 417.84307093 548.82584487 418.87391281 547.58786392 C430.72246801 533.17219236 440.63056045 517.54242087 449.79188156 501.31052017 C450.14734055 500.68613052 450.50279953 500.06174088 450.86903 499.41843033 C482.47906692 443.54435097 493.11359986 373.88606808 477.32899094 311.45993423 C476.78370402 309.27779513 476.27842652 307.0888817 475.77625656 304.89645767 C464.14705223 255.82701682 435.8797727 210.97339231 401.71375656 174.45505142 C399.10286561 171.66119386 396.56834637 168.80610691 394.04188156 165.93552017 C390.79537856 162.30810978 387.39792143 159.08199091 383.67860031 155.94723892 C381.84242106 154.35436293 380.16519123 152.68539862 378.47938156 150.93552017 C373.92209214 146.31678415 368.84800906 142.3643037 363.79188156 138.31052017 C362.70084501 137.4070107 361.61104049 136.5020118 360.52235031 135.59567642 C343.80615893 121.79135291 325.5485103 110.12652935 306.79188156 99.31052017 C306.07709641 98.89528091 305.36231125 98.48004166 304.62586594 98.05221939 C262.82526263 73.87591697 217.54887839 55.40136979 170.79188156 43.31052017 C170.09095383 43.12731216 169.39002609 42.94410416 168.66785812 42.75534439 C164.05444844 41.55611693 159.42691029 40.42367541 154.79188156 39.31052017 C153.44936618 38.98006496 152.10691942 38.64933088 150.76453781 38.31833267 C103.89609485 26.88267661 55.59385484 21.86172978 7.41688156 21.99802017 C6.05418026 21.99994698 4.69147884 22.00178716 3.32877731 22.00354385 C-18.63056967 22.04460303 -40.38656895 22.76013075 -62.20811844 25.31052017 Z " fill="#FF8A33" transform="translate(833.2081184387207,431.68947982788086)"/>
<path d="M0 0 C5.10603963 3.20656713 9.62328184 6.91631993 14.09765625 10.9453125 C14.86722656 11.62078125 15.63679688 12.29625 16.4296875 12.9921875 C26.35971592 22.24398281 33.72111089 34.1405728 38.09765625 46.9453125 C38.34128906 47.60273437 38.58492187 48.26015625 38.8359375 48.9375 C42.30217602 59.9257119 40.81731363 72.38200917 35.80859375 82.56640625 C30.09424722 92.84917421 22.23282233 98.07576249 11.22265625 101.6953125 C-8.18018314 106.55945922 -27.11175104 100.8362187 -43.90234375 90.9453125 C-47.7385313 88.46501883 -51.34458163 85.80787972 -54.90234375 82.9453125 C-55.59457031 82.41679688 -56.28679687 81.88828125 -57 81.34375 C-70.56430314 70.39522699 -79.49995247 53.86418591 -83.58984375 37.1328125 C-84.87065419 24.06854606 -84.0169685 12.65661717 -75.90234375 1.9453125 C-55.70825389 -20.32885529 -23.20452636 -13.02611322 0 0 Z " fill="#1D1D20" transform="translate(1126.90234375,658.0546875)"/>
<path d="M0 0 C8.18320097 5.87055722 13.22502264 13.27443321 15.125 23.1875 C17.21106834 42.95299751 10.58831197 59.85280607 -1.5234375 75.3671875 C-15.32321835 91.91775523 -36.15830467 104.73964646 -57.88867188 107.4375 C-70.97281657 108.47489502 -83.74254612 105.78775242 -94.03125 97.4375 C-102.47490637 89.62396724 -106.7236082 79.58133545 -107.25 68.1875 C-106.73557162 47.49604726 -96.11720293 30.16168554 -81.73046875 15.96850586 C-60.75188483 -3.95492171 -26.48782646 -16.27670391 0 0 Z " fill="#1D1D1F" transform="translate(603.875,649.8125)"/>
<path d="M0 0 C5.29032009 3.9875646 7.35634125 9.63571921 8.375 16 C9.44771988 28.27498036 7.01011878 38.37417546 -0.8515625 48.01171875 C-21.03351538 70.63862187 -49.41784933 83.60134696 -79.625 86 C-94.0416668 86.7010512 -108.37724857 86.33338642 -122.625 84 C-123.4804541 83.86577637 -124.3359082 83.73155273 -125.21728516 83.59326172 C-149.35494332 79.75250307 -175.6808871 73.68913553 -192.12109375 54.12109375 C-198.23570701 45.49710674 -199.57044748 36.36840737 -198.625 26 C-196.80376452 19.21771908 -194.4227389 13.21614637 -189.625 8 C-177.85703007 4.07734336 -163.0036122 8.20712927 -151.625 12 C-151.61082031 12.72703125 -151.59664062 13.4540625 -151.58203125 14.203125 C-151.17576486 22.76765975 -149.78471109 31.40528645 -143.83203125 37.98046875 C-135.84446683 44.43748191 -126.91777409 45.51140643 -116.9375 45.375 C-115.8453418 45.36412354 -114.75318359 45.35324707 -113.62792969 45.34204102 C-93.51975932 44.95646467 -68.73812413 42.85751602 -52.37109375 29.81640625 C-49.53348075 26.86452695 -47.93274826 23.85441593 -46.625 20 C-46.233125 18.845 -45.84125 17.69 -45.4375 16.5 C-44.79294377 13.7234501 -44.55991292 11.54509511 -44.4375 8.75 C-44.169375 7.5125 -43.90125 6.275 -43.625 5 C-32.40831284 -0.94251949 -11.67433142 -6.33074957 0 0 Z " fill="#C95600" transform="translate(935.625,873)"/>
<path d="M0 0 C0.58017912 9.5246072 -0.73257985 15.59618976 -5.625 23.6875 C-22.03766658 39.6682543 -50.64063833 41.14541533 -72.1875 41.4375 C-73.20215332 41.45989746 -74.21680664 41.48229492 -75.26220703 41.50537109 C-84.43066383 41.47671495 -93.76737803 39.35869931 -100.5625 32.80859375 C-106.48386254 25.35861859 -106.51602526 17.14511436 -106 8 C-97.07814573 8.39652686 -88.23239142 8.89351468 -79.375 10.0625 C-62.05627012 12.26699402 -46.58363213 9.92074282 -29.625 6.0625 C-27.25397738 5.52963133 -24.88288429 4.99707612 -22.51171875 4.46484375 C-21.38942871 4.21202637 -20.26713867 3.95920898 -19.11083984 3.69873047 C-15.22289943 2.82545426 -11.33201752 1.96847581 -7.4375 1.125 C-6.40496094 0.90070312 -5.37242187 0.67640625 -4.30859375 0.4453125 C-2 0 -2 0 0 0 Z " fill="#E4E3E2" transform="translate(891,878)"/>
</svg>
