<?xml version="1.0" encoding="UTF-8"?>
<svg id="Layer_1" data-name="Layer 1" xmlns="http://www.w3.org/2000/svg" viewBox="0 0 521.22 96.66">
  <defs>
    <style>
      .cls-1 {
        fill: #000;
        stroke-width: 0px;
      }
    </style>
  </defs>
  <path class="cls-1" d="M31.64,96.66c-6.48,0-12.08-1.42-16.79-4.27-4.72-2.84-8.37-6.88-10.96-12.1-2.59-5.22-3.89-11.39-3.89-18.52s1.31-13.59,3.94-18.95c2.63-5.36,6.35-9.49,11.18-12.37,4.82-2.88,10.51-4.32,17.06-4.32,5.9,0,11.03,1.19,15.39,3.56,4.36,2.38,7.79,5.76,10.31,10.15,2.12,3.7,3.43,7.99,3.92,12.87.15,1.5-1.05,2.79-2.56,2.79h-11.02c-1.15,0-2.15-.77-2.46-1.88-.98-3.5-2.5-6.27-4.56-8.33-2.41-2.41-5.49-3.62-9.23-3.62-4.68,0-8.37,1.77-11.07,5.29-2.7,3.53-4.05,8.42-4.05,14.69s1.31,10.89,3.94,14.31c2.63,3.42,6.21,5.13,10.75,5.13,3.24,0,6.01-1.01,8.32-3.02,1.94-1.7,3.45-3.99,4.52-6.87.37-1,1.33-1.67,2.39-1.67h11.08c1.58,0,2.77,1.41,2.54,2.97-.63,4.31-2,8.13-4.12,11.45-2.59,4.07-5.99,7.2-10.21,9.4-4.21,2.2-9.02,3.29-14.42,3.29Z"/>
  <path class="cls-1" d="M102.72,96.66c-6.48,0-12.1-1.42-16.85-4.27-4.75-2.84-8.42-6.91-11.02-12.2-2.59-5.29-3.89-11.54-3.89-18.74s1.3-13.55,3.89-18.85c2.59-5.29,6.26-9.36,11.02-12.2,4.75-2.84,10.37-4.27,16.85-4.27s12.19,1.42,16.9,4.27c4.71,2.85,8.37,6.91,10.96,12.2s3.89,11.57,3.89,18.85-1.3,13.45-3.89,18.74-6.25,9.36-10.96,12.2c-4.72,2.84-10.35,4.27-16.9,4.27ZM102.72,81.11c4.75,0,8.42-1.73,11.02-5.18,2.59-3.46,3.89-8.28,3.89-14.47s-1.3-11.12-3.89-14.58c-2.59-3.46-6.26-5.18-11.02-5.18s-8.33,1.73-10.96,5.18c-2.63,3.46-3.94,8.32-3.94,14.58s1.31,11.02,3.94,14.47c2.63,3.46,6.28,5.18,10.96,5.18Z"/>
  <path class="cls-1" d="M146.59,28.19h31.91c1.42,0,2.57,1.15,2.57,2.57v45.74c0,1.42,1.15,2.57,2.57,2.57h14.2c1.42,0,2.57,1.15,2.57,2.57v10.42c0,1.42-1.15,2.57-2.57,2.57h-51.24c-1.42,0-2.57-1.15-2.57-2.57v-10.42c0-1.42,1.15-2.57,2.57-2.57h14.42c1.42,0,2.57-1.15,2.57-2.57v-30.18c0-1.42-1.15-2.57-2.57-2.57h-14.42c-1.42,0-2.57-1.15-2.57-2.57v-10.42c0-1.42,1.15-2.57,2.57-2.57ZM171.46,19.98c-3.6,0-6.39-.88-8.37-2.65-1.98-1.76-2.97-4.19-2.97-7.29s.99-5.63,2.97-7.4c1.98-1.76,4.77-2.65,8.37-2.65s6.39.88,8.37,2.65c1.98,1.77,2.97,4.23,2.97,7.4s-.99,5.53-2.97,7.29c-1.98,1.77-4.77,2.65-8.37,2.65Z"/>
  <path class="cls-1" d="M210.36,92.04V30.75c0-1.42,1.15-2.57,2.57-2.57h12.36c1.42,0,2.57,1.15,2.57,2.57v.92c0,1.42,1.15,2.57,2.57,2.57h0c.84,0,1.63-.4,2.1-1.1,1.38-2.07,3.19-3.7,5.43-4.9,2.63-1.4,5.6-2.11,8.91-2.11,4.39,0,8.13,1.04,11.23,3.13,3.1,2.09,5.47,5.09,7.13,9.02,1.66,3.92,2.48,8.66,2.48,14.2v39.55c0,1.42-1.15,2.57-2.57,2.57h-12.36c-1.42,0-2.57-1.15-2.57-2.57v-35.34c0-4.68-.94-8.22-2.81-10.64-1.87-2.41-4.64-3.62-8.32-3.62s-6.46,1.21-8.37,3.62c-1.91,2.41-2.86,5.96-2.86,10.64v35.34c0,1.42-1.15,2.57-2.57,2.57h-12.36c-1.42,0-2.57-1.15-2.57-2.57Z"/>
  <path class="cls-1" d="M299.98,95.8c-4.32,0-7.65-1.19-9.99-3.56-2.34-2.38-3.51-5.72-3.51-10.04s1.17-7.85,3.51-10.15c2.34-2.3,5.67-3.46,9.99-3.46s7.65,1.15,9.99,3.46c2.34,2.3,3.51,5.65,3.51,10.04s-1.17,7.78-3.51,10.15c-2.34,2.38-5.67,3.56-9.99,3.56Z"/>
  <path class="cls-1" d="M353.37,94.61h-12.36c-1.42,0-2.57-1.15-2.57-2.57v-45.74c0-1.42-1.15-2.57-2.57-2.57h-9.12c-1.42,0-2.57-1.15-2.57-2.57v-10.42c0-1.42,1.15-2.57,2.57-2.57h9.12c1.42,0,2.57-1.15,2.57-2.57v-1.43c0-7.42,2.2-13.14,6.59-17.17,4.39-4.03,10.58-6.05,18.58-6.05,7.56,0,13.5,1.78,17.82,5.35,3.64,3.01,5.9,7.12,6.78,12.36.27,1.58-.93,3.03-2.53,3.03h-11.93c-.95,0-1.8-.54-2.26-1.36-.71-1.27-1.59-2.26-2.64-2.96-1.4-.93-3.15-1.4-5.24-1.4-2.52,0-4.43.7-5.72,2.11-1.3,1.4-1.94,3.51-1.94,6.32v1.21c0,1.42,1.15,2.57,2.57,2.57h19.49c1.42,0,2.57,1.15,2.57,2.57v10.42c0,1.42-1.15,2.57-2.57,2.57h-19.49c-1.42,0-2.57,1.15-2.57,2.57v45.74c0,1.42-1.15,2.57-2.57,2.57Z"/>
  <path class="cls-1" d="M448.73,30.75v61.29c0,1.42-1.15,2.57-2.57,2.57h-12.36c-1.42,0-2.57-1.15-2.57-2.57v-.92c0-1.42-1.15-2.57-2.57-2.57h0c-.84,0-1.64.4-2.1,1.1-1.37,2.06-3.17,3.7-5.38,4.89-2.59,1.4-5.58,2.11-8.96,2.11-4.39,0-8.14-1.04-11.23-3.13-3.1-2.09-5.47-5.09-7.13-9.02-1.66-3.92-2.48-8.66-2.48-14.2V30.75c0-1.42,1.15-2.57,2.57-2.57h12.36c1.42,0,2.57,1.15,2.57,2.57v35.34c0,4.75.94,8.32,2.81,10.69,1.87,2.38,4.64,3.56,8.32,3.56s6.46-1.19,8.37-3.56c1.91-2.38,2.86-5.94,2.86-10.69V30.75c0-1.42,1.15-2.57,2.57-2.57h12.36c1.42,0,2.57,1.15,2.57,2.57Z"/>
  <path class="cls-1" d="M463.87,92.04V30.75c0-1.42,1.15-2.57,2.57-2.57h12.36c1.42,0,2.57,1.15,2.57,2.57v.92c0,1.42,1.15,2.57,2.57,2.57h0c.84,0,1.63-.4,2.1-1.1,1.38-2.07,3.19-3.7,5.43-4.9,2.63-1.4,5.6-2.11,8.91-2.11,4.39,0,8.13,1.04,11.23,3.13,3.1,2.09,5.47,5.09,7.13,9.02,1.66,3.92,2.48,8.66,2.48,14.2v39.55c0,1.42-1.15,2.57-2.57,2.57h-12.36c-1.42,0-2.57-1.15-2.57-2.57v-35.34c0-4.68-.94-8.22-2.81-10.64-1.87-2.41-4.64-3.62-8.32-3.62s-6.46,1.21-8.37,3.62c-1.91,2.41-2.86,5.96-2.86,10.64v35.34c0,1.42-1.15,2.57-2.57,2.57h-12.36c-1.42,0-2.57-1.15-2.57-2.57Z"/>
</svg>
